<?xml version="1.0" encoding="iso-8859-1"?>
<!-- Uploaded to: SVG Repo, www.svgrepo.com, Generator: SVG Repo Mixer Tools -->
<svg version="1.1" id="Layer_1" xmlns="http://www.w3.org/2000/svg" xmlns:xlink="http://www.w3.org/1999/xlink" 
	 viewBox="0 0 511.847 511.847" xml:space="preserve">
<g>
	<polygon style="fill:#A9B1BC;" points="317.75,348.242 302.677,333.153 337.76,298.07 352.835,313.143 	"/>
	<polygon style="fill:#A9B1BC;" points="197.163,227.645 182.09,212.572 217.173,177.489 232.247,192.554 	"/>
</g>
<rect x="221.543" y="166.876" transform="matrix(-0.7071 -0.7071 0.7071 -0.7071 270.8571 467.2619)" width="21.317" height="21.317"/>
<path style="fill:#46CEAD;" d="M198.288,173.763L335.073,36.985c10.388-10.387,27.288-10.387,37.677,0
	c10.387,10.388,10.387,27.289,0,37.676L235.964,211.447L198.288,173.763z"/>
<path style="fill:#35BB9B;" d="M380.294,29.448c-14.573-14.566-38.191-14.566-52.749,0L183.214,173.763l52.75,52.757l144.33-144.323
	C394.853,67.632,394.853,44.014,380.294,29.448z M365.221,67.124l-129.257,129.25l-22.603-22.61L342.617,44.522
	c6.232-6.232,16.371-6.232,22.604,0l0,0C371.453,50.754,371.453,60.891,365.221,67.124z"/>
<path style="fill:#CBD0D8;" d="M315.159,335.746c-29.133-29.117-76.368-29.117-105.507,0
	c-52.75,52.765-60.278,135.646-45.212,150.719c15.073,15.074,97.97,7.545,150.72-45.221
	C344.289,412.129,344.289,364.893,315.159,335.746z"/>
<g>
	<path style="fill:#E5E8EC;" d="M332.574,363.144c-3.608-9.997-9.403-19.369-17.416-27.397
		c-8.014-7.998-17.387-13.809-27.383-17.401c-16.995,19.899-21.768,43.611-10.294,55.077
		C288.948,384.903,312.659,380.139,332.574,363.144z"/>
	<path style="fill:#E5E8EC;" d="M211.986,242.555c-3.601-9.997-9.403-19.377-17.417-27.39s-17.393-13.816-27.39-17.417
		c-16.987,19.916-21.759,43.627-10.294,55.092C168.359,264.315,192.07,259.542,211.986,242.555z"/>
</g>
<polygon points="352.835,313.143 337.76,298.07 352.835,283.012 367.908,298.07 "/>
<path style="fill:#5E9CEA;" d="M318.922,294.305l136.787-136.779c10.387-10.387,27.288-10.387,37.676,0
	c10.387,10.388,10.387,27.289,0,37.676L356.599,331.996L318.922,294.305z"/>
<path style="fill:#4B89DA;" d="M500.93,149.989c-14.573-14.566-38.191-14.566-52.749,0L303.849,294.305l52.749,52.75
	l144.331-144.316C515.487,188.173,515.487,164.555,500.93,149.989z M485.857,187.665L356.599,316.907l-22.602-22.603l129.241-129.25
	c6.248-6.232,16.386-6.232,22.618,0l0,0C492.089,171.287,492.089,181.433,485.857,187.665z"/>
<g>
	<path style="fill:#424953;" d="M356.613,347.055l-52.765-52.75c-4.155-4.17-4.155-10.918,0-15.073
		c4.171-4.155,10.919-4.155,15.073,0l52.75,52.749c4.17,4.171,4.17,10.919,0,15.074C367.517,351.209,360.77,351.209,356.613,347.055
		z"/>
	<path style="fill:#424953;" d="M236.018,226.466l-52.757-52.75c-4.155-4.163-4.155-10.911,0-15.074
		c4.163-4.163,10.911-4.155,15.074,0l52.75,52.757c4.163,4.155,4.163,10.903,0,15.066
		C246.921,230.629,240.182,230.629,236.018,226.466z"/>
</g>
<path style="fill:#CBD0D8;" d="M194.57,320.656c29.132-29.116,29.132-76.36,0-105.492s-76.367-29.132-105.499,0
	c-2.539,2.53-4.842,5.209-6.936,7.99l-0.531-0.523l-75.36,75.345c-8.326,8.341-8.326,21.837,0,30.147
	c8.325,8.341,21.821,8.341,30.147,0l0.078-0.062l35.067-35.084l6.295-6.295c2.085-2.076,5.459-2.076,7.537,0
	c2.085,2.078,2.085,5.452,0,7.545l-9.185,9.186l0,0l-32.256,32.256c-8.326,8.325-8.326,21.82,0,30.131
	c8.318,8.342,21.813,8.342,30.139,0l32.264-32.24l0,0l9.185-9.185c2.078-2.093,5.452-2.093,7.537,0c2.077,2.062,2.077,5.436,0,7.528
	l-41.371,41.363h-0.007l-0.07,0.078c-8.326,8.325-8.326,21.821,0,30.146c8.325,8.326,21.821,8.326,30.139,0l75.36-75.367
	l-0.531-0.531C189.361,325.498,192.031,323.203,194.57,320.656z"/>
<g>
	<path style="fill:#A9B1BC;" d="M51.458,282.918c-8.317-8.326-21.813-8.326-30.139,0L6.246,297.976
		c-8.318,8.341-8.318,21.837,0,30.147c8.325,8.341,21.821,8.341,30.147,0l0.078-0.062l14.987-14.996
		C59.784,304.724,59.784,291.229,51.458,282.918z"/>
	<path style="fill:#A9B1BC;" d="M89.142,320.594c-8.326-8.326-21.822-8.326-30.147,0l-15.066,15.074
		c-8.326,8.325-8.326,21.82,0,30.131c8.318,8.342,21.813,8.342,30.139,0l0.078-0.062l14.996-14.996
		C97.467,342.416,97.467,328.92,89.142,320.594z"/>
	<path style="fill:#A9B1BC;" d="M126.817,358.27c-8.326-8.31-21.813-8.31-30.139,0l-15.073,15.074
		c-8.326,8.325-8.326,21.821,0,30.146c8.325,8.326,21.821,8.326,30.147,0l0.078-0.078l14.987-14.995
		C135.143,380.092,135.143,366.596,126.817,358.27z"/>
</g>
<g>
	<path style="fill:#E5E8EC;" d="M36.392,297.976c-8.326-8.31-21.822-8.31-30.147,0l0,0c-8.326,8.341-8.326,21.837,0,30.147
		c8.325,8.341,21.821,8.341,30.147,0l0.078-0.062l-0.078,0.062C44.71,319.813,44.71,306.317,36.392,297.976z"/>
	<path style="fill:#E5E8EC;" d="M74.068,335.668c-8.326-8.326-21.821-8.326-30.139,0l0,0c-8.326,8.325-8.326,21.82,0,30.131
		c8.318,8.342,21.813,8.342,30.139,0l0.078-0.062l-0.078,0.062C82.394,357.488,82.394,343.993,74.068,335.668z"/>
	<path style="fill:#E5E8EC;" d="M111.744,373.344c-8.318-8.326-21.814-8.326-30.139,0l0,0c-8.326,8.325-8.326,21.821,0,30.146
		c8.325,8.326,21.821,8.326,30.139,0l0.086-0.078l-0.086,0.078C120.069,395.165,120.069,381.669,111.744,373.344z"/>
</g>
</svg>